<mxfile host="app.diagrams.net" agent="Mozilla/5.0 (Windows NT 10.0; Win64; x64) AppleWebKit/537.36 (KHTML, like Gecko) Chrome/130.0.0.0 Safari/537.36 Edg/130.0.0.0" version="24.7.13">
  <diagram name="第 1 页" id="FB0cXYKskVYNAyotkQge">
    <mxGraphModel dx="2040" dy="734" grid="1" gridSize="10" guides="1" tooltips="1" connect="1" arrows="1" fold="1" page="1" pageScale="1" pageWidth="827" pageHeight="1169" background="none" math="0" shadow="0">
      <root>
        <mxCell id="0" />
        <mxCell id="1" parent="0" />
        <mxCell id="BRUlREZfAdTklGZeehVe-75" value="" style="group" vertex="1" connectable="0" parent="1">
          <mxGeometry x="610" y="87" width="217" height="150" as="geometry" />
        </mxCell>
        <mxCell id="BRUlREZfAdTklGZeehVe-76" value="DataBase：BDP&lt;span style=&quot;background-color: initial;&quot;&gt;_T1&lt;/span&gt;&lt;div&gt;&lt;div&gt;&lt;br&gt;&lt;/div&gt;&lt;/div&gt;" style="verticalAlign=top;align=left;spacingTop=8;spacingLeft=2;spacingRight=12;shape=cube;size=10;direction=south;fontStyle=4;html=1;whiteSpace=wrap;" vertex="1" parent="BRUlREZfAdTklGZeehVe-75">
          <mxGeometry width="217" height="150" as="geometry" />
        </mxCell>
        <mxCell id="BRUlREZfAdTklGZeehVe-77" value="BPCLM" style="html=1;whiteSpace=wrap;" vertex="1" parent="BRUlREZfAdTklGZeehVe-75">
          <mxGeometry x="63.63157894736842" y="50" width="89.73684210526315" height="50" as="geometry" />
        </mxCell>
        <mxCell id="BRUlREZfAdTklGZeehVe-2" value="" style="ellipse;whiteSpace=wrap;html=1;aspect=fixed;" vertex="1" parent="1">
          <mxGeometry x="-259" y="167" width="20" height="20" as="geometry" />
        </mxCell>
        <mxCell id="BRUlREZfAdTklGZeehVe-3" value="" style="ellipse;whiteSpace=wrap;html=1;aspect=fixed;" vertex="1" parent="1">
          <mxGeometry x="-259" y="77" width="20" height="20" as="geometry" />
        </mxCell>
        <mxCell id="BRUlREZfAdTklGZeehVe-4" value="" style="ellipse;whiteSpace=wrap;html=1;aspect=fixed;" vertex="1" parent="1">
          <mxGeometry x="-259" y="137" width="20" height="20" as="geometry" />
        </mxCell>
        <mxCell id="BRUlREZfAdTklGZeehVe-5" value="" style="ellipse;whiteSpace=wrap;html=1;aspect=fixed;" vertex="1" parent="1">
          <mxGeometry x="-259" y="107" width="20" height="20" as="geometry" />
        </mxCell>
        <mxCell id="BRUlREZfAdTklGZeehVe-6" value="" style="ellipse;whiteSpace=wrap;html=1;aspect=fixed;" vertex="1" parent="1">
          <mxGeometry x="-259" y="197" width="20" height="20" as="geometry" />
        </mxCell>
        <mxCell id="BRUlREZfAdTklGZeehVe-7" value="" style="ellipse;whiteSpace=wrap;html=1;aspect=fixed;" vertex="1" parent="1">
          <mxGeometry x="-259" y="227" width="20" height="20" as="geometry" />
        </mxCell>
        <mxCell id="BRUlREZfAdTklGZeehVe-17" style="edgeStyle=orthogonalEdgeStyle;rounded=0;orthogonalLoop=1;jettySize=auto;html=1;exitX=0;exitY=0.5;exitDx=0;exitDy=0;exitPerimeter=0;strokeWidth=2;" edge="1" parent="1" source="BRUlREZfAdTklGZeehVe-10">
          <mxGeometry relative="1" as="geometry">
            <mxPoint x="-143" y="161.66666666666674" as="targetPoint" />
          </mxGeometry>
        </mxCell>
        <mxCell id="BRUlREZfAdTklGZeehVe-25" value="各个源系统" style="text;html=1;align=center;verticalAlign=middle;resizable=0;points=[];autosize=1;strokeColor=none;fillColor=none;" vertex="1" parent="1">
          <mxGeometry x="-289" y="47" width="80" height="30" as="geometry" />
        </mxCell>
        <mxCell id="BRUlREZfAdTklGZeehVe-32" value="" style="group" vertex="1" connectable="0" parent="1">
          <mxGeometry x="-209" y="87" width="648" height="150" as="geometry" />
        </mxCell>
        <mxCell id="BRUlREZfAdTklGZeehVe-10" value="" style="strokeWidth=2;html=1;shape=mxgraph.flowchart.annotation_2;align=left;labelPosition=right;pointerEvents=1;rotation=-180;" vertex="1" parent="BRUlREZfAdTklGZeehVe-32">
          <mxGeometry width="50" height="150" as="geometry" />
        </mxCell>
        <mxCell id="BRUlREZfAdTklGZeehVe-29" style="edgeStyle=orthogonalEdgeStyle;rounded=0;orthogonalLoop=1;jettySize=auto;html=1;exitX=0;exitY=0.5;exitDx=0;exitDy=0;exitPerimeter=0;strokeWidth=2;" edge="1" parent="BRUlREZfAdTklGZeehVe-32">
          <mxGeometry relative="1" as="geometry">
            <mxPoint x="379" y="75" as="targetPoint" />
            <mxPoint x="339" y="74.58000000000001" as="sourcePoint" />
          </mxGeometry>
        </mxCell>
        <mxCell id="BRUlREZfAdTklGZeehVe-30" value="" style="group" vertex="1" connectable="0" parent="BRUlREZfAdTklGZeehVe-32">
          <mxGeometry x="382" width="266" height="150" as="geometry" />
        </mxCell>
        <mxCell id="BRUlREZfAdTklGZeehVe-21" value="DataBase：BDP&lt;span style=&quot;background-color: initial;&quot;&gt;_T1&lt;/span&gt;&lt;div&gt;&lt;div&gt;&lt;br&gt;&lt;/div&gt;&lt;/div&gt;" style="verticalAlign=top;align=left;spacingTop=8;spacingLeft=2;spacingRight=12;shape=cube;size=10;direction=south;fontStyle=4;html=1;whiteSpace=wrap;" vertex="1" parent="BRUlREZfAdTklGZeehVe-30">
          <mxGeometry width="266" height="150" as="geometry" />
        </mxCell>
        <mxCell id="BRUlREZfAdTklGZeehVe-24" value="HDM" style="html=1;whiteSpace=wrap;" vertex="1" parent="BRUlREZfAdTklGZeehVe-30">
          <mxGeometry x="78" y="50" width="110" height="50" as="geometry" />
        </mxCell>
        <mxCell id="BRUlREZfAdTklGZeehVe-31" value="" style="group" vertex="1" connectable="0" parent="BRUlREZfAdTklGZeehVe-32">
          <mxGeometry x="70" width="266" height="150" as="geometry" />
        </mxCell>
        <mxCell id="BRUlREZfAdTklGZeehVe-14" value="DataBase：COL_T1&lt;div&gt;&lt;br&gt;&lt;/div&gt;" style="verticalAlign=top;align=left;spacingTop=8;spacingLeft=2;spacingRight=12;shape=cube;size=10;direction=south;fontStyle=4;html=1;whiteSpace=wrap;" vertex="1" parent="BRUlREZfAdTklGZeehVe-31">
          <mxGeometry width="266" height="150" as="geometry" />
        </mxCell>
        <mxCell id="BRUlREZfAdTklGZeehVe-82" value="" style="edgeStyle=orthogonalEdgeStyle;rounded=0;orthogonalLoop=1;jettySize=auto;html=1;strokeWidth=2;" edge="1" parent="BRUlREZfAdTklGZeehVe-31" source="BRUlREZfAdTklGZeehVe-12" target="BRUlREZfAdTklGZeehVe-13">
          <mxGeometry relative="1" as="geometry" />
        </mxCell>
        <mxCell id="BRUlREZfAdTklGZeehVe-12" value="ODM" style="html=1;whiteSpace=wrap;" vertex="1" parent="BRUlREZfAdTklGZeehVe-31">
          <mxGeometry y="50" width="110" height="50" as="geometry" />
        </mxCell>
        <mxCell id="BRUlREZfAdTklGZeehVe-13" value="SODM" style="html=1;whiteSpace=wrap;" vertex="1" parent="BRUlREZfAdTklGZeehVe-31">
          <mxGeometry x="139" y="50" width="110" height="50" as="geometry" />
        </mxCell>
        <mxCell id="BRUlREZfAdTklGZeehVe-48" value="历史库的存储过程&lt;span style=&quot;background-color: initial;&quot;&gt;对各个历史库中&lt;/span&gt;&lt;div&gt;&lt;span style=&quot;background-color: initial;&quot;&gt;系统&lt;/span&gt;&lt;span style=&quot;background-color: initial;&quot;&gt;的表进行&lt;/span&gt;&lt;span style=&quot;background-color: initial;&quot;&gt;加工，&lt;/span&gt;&lt;span style=&quot;background-color: initial;&quot;&gt;最终保存到&amp;nbsp;&lt;/span&gt;&lt;div&gt;&lt;span style=&quot;background-color: initial;&quot;&gt;BPCLM用户下的各种表&lt;/span&gt;&lt;/div&gt;&lt;/div&gt;" style="text;html=1;align=center;verticalAlign=middle;resizable=0;points=[];autosize=1;strokeColor=none;fillColor=none;" vertex="1" parent="1">
          <mxGeometry x="429" y="20" width="200" height="60" as="geometry" />
        </mxCell>
        <mxCell id="BRUlREZfAdTklGZeehVe-49" style="edgeStyle=orthogonalEdgeStyle;rounded=0;orthogonalLoop=1;jettySize=auto;html=1;exitX=0;exitY=0.5;exitDx=0;exitDy=0;exitPerimeter=0;strokeWidth=2;" edge="1" parent="1">
          <mxGeometry relative="1" as="geometry">
            <mxPoint x="478.99999999999955" y="161.94" as="targetPoint" />
            <mxPoint x="438.99999999999955" y="161.52" as="sourcePoint" />
          </mxGeometry>
        </mxCell>
        <mxCell id="BRUlREZfAdTklGZeehVe-50" value="" style="group" vertex="1" connectable="0" parent="1">
          <mxGeometry x="500" y="87" width="50" height="150" as="geometry" />
        </mxCell>
        <mxCell id="BRUlREZfAdTklGZeehVe-33" value="" style="strokeWidth=2;html=1;shape=mxgraph.flowchart.annotation_1;align=left;pointerEvents=1;" vertex="1" parent="BRUlREZfAdTklGZeehVe-50">
          <mxGeometry width="50" height="150" as="geometry" />
        </mxCell>
        <mxCell id="BRUlREZfAdTklGZeehVe-34" value="" style="line;strokeWidth=4;html=1;perimeter=backbonePerimeter;points=[];outlineConnect=0;" vertex="1" parent="BRUlREZfAdTklGZeehVe-50">
          <mxGeometry x="10" y="10" width="30" height="10" as="geometry" />
        </mxCell>
        <mxCell id="BRUlREZfAdTklGZeehVe-35" value="" style="line;strokeWidth=4;html=1;perimeter=backbonePerimeter;points=[];outlineConnect=0;flipH=1;flipV=1;" vertex="1" parent="BRUlREZfAdTklGZeehVe-50">
          <mxGeometry x="10" y="25" width="30" height="10" as="geometry" />
        </mxCell>
        <mxCell id="BRUlREZfAdTklGZeehVe-39" value="" style="line;strokeWidth=4;html=1;perimeter=backbonePerimeter;points=[];outlineConnect=0;flipH=1;flipV=1;" vertex="1" parent="BRUlREZfAdTklGZeehVe-50">
          <mxGeometry x="10" y="40" width="30" height="10" as="geometry" />
        </mxCell>
        <mxCell id="BRUlREZfAdTklGZeehVe-40" value="" style="line;strokeWidth=4;html=1;perimeter=backbonePerimeter;points=[];outlineConnect=0;flipH=1;flipV=1;" vertex="1" parent="BRUlREZfAdTklGZeehVe-50">
          <mxGeometry x="10" y="55" width="30" height="10" as="geometry" />
        </mxCell>
        <mxCell id="BRUlREZfAdTklGZeehVe-41" value="" style="line;strokeWidth=4;html=1;perimeter=backbonePerimeter;points=[];outlineConnect=0;flipH=1;flipV=1;" vertex="1" parent="BRUlREZfAdTklGZeehVe-50">
          <mxGeometry x="10" y="70" width="30" height="10" as="geometry" />
        </mxCell>
        <mxCell id="BRUlREZfAdTklGZeehVe-42" value="" style="line;strokeWidth=4;html=1;perimeter=backbonePerimeter;points=[];outlineConnect=0;flipH=1;flipV=1;" vertex="1" parent="BRUlREZfAdTklGZeehVe-50">
          <mxGeometry x="10" y="85" width="30" height="10" as="geometry" />
        </mxCell>
        <mxCell id="BRUlREZfAdTklGZeehVe-43" value="" style="line;strokeWidth=4;html=1;perimeter=backbonePerimeter;points=[];outlineConnect=0;flipH=1;flipV=1;" vertex="1" parent="BRUlREZfAdTklGZeehVe-50">
          <mxGeometry x="10" y="100" width="30" height="10" as="geometry" />
        </mxCell>
        <mxCell id="BRUlREZfAdTklGZeehVe-44" value="" style="line;strokeWidth=4;html=1;perimeter=backbonePerimeter;points=[];outlineConnect=0;flipH=1;flipV=1;" vertex="1" parent="BRUlREZfAdTklGZeehVe-50">
          <mxGeometry x="10" y="115" width="30" height="10" as="geometry" />
        </mxCell>
        <mxCell id="BRUlREZfAdTklGZeehVe-47" value="" style="line;strokeWidth=4;html=1;perimeter=backbonePerimeter;points=[];outlineConnect=0;flipH=1;flipV=1;" vertex="1" parent="BRUlREZfAdTklGZeehVe-50">
          <mxGeometry x="10" y="130" width="30" height="10" as="geometry" />
        </mxCell>
        <mxCell id="BRUlREZfAdTklGZeehVe-64" style="edgeStyle=orthogonalEdgeStyle;rounded=0;orthogonalLoop=1;jettySize=auto;html=1;exitX=0;exitY=0.5;exitDx=0;exitDy=0;exitPerimeter=0;strokeWidth=2;" edge="1" parent="1">
          <mxGeometry relative="1" as="geometry">
            <mxPoint x="599.9999999999995" y="161.97" as="targetPoint" />
            <mxPoint x="559.9999999999995" y="161.55" as="sourcePoint" />
          </mxGeometry>
        </mxCell>
        <mxCell id="BRUlREZfAdTklGZeehVe-80" value="抽数" style="text;html=1;align=center;verticalAlign=middle;resizable=0;points=[];autosize=1;strokeColor=none;fillColor=none;" vertex="1" parent="1">
          <mxGeometry x="-220" y="47" width="50" height="30" as="geometry" />
        </mxCell>
        <mxCell id="BRUlREZfAdTklGZeehVe-81" value="迁移到历史库" style="text;html=1;align=center;verticalAlign=middle;resizable=0;points=[];autosize=1;strokeColor=none;fillColor=none;" vertex="1" parent="1">
          <mxGeometry x="100" y="47" width="100" height="30" as="geometry" />
        </mxCell>
      </root>
    </mxGraphModel>
  </diagram>
</mxfile>
